<svg width="500" height="350" xmlns="http://www.w3.org/2000/svg">
 <!-- Created with Method Draw - http://github.com/duopixel/Method-Draw/ -->

 <g>
  <title>background</title>
  <rect fill="#05af4c" id="canvas_background" height="352" width="502" y="-1" x="-1"/>
  <g display="none" overflow="visible" y="0" x="0" height="100%" width="100%" id="canvasGrid">
   <rect fill="url(#gridpattern)" stroke-width="0" y="0" x="0" height="100%" width="100%"/>
  </g>
 </g>
 <g>
  <title>Layer 1</title>
  <g id="svg_5">
   <path fill="#ffffff" id="svg_4" d="m346.45062,247.33797c13.26196,0 23.99209,-10.8507 23.99209,-24.11266l0.12056,-120.56328c0,-13.26196 -10.8507,-24.11266 -24.11266,-24.11266l-192.90125,0c-13.26196,0 -24.11266,10.8507 -24.11266,24.11266l0,120.56328c0,13.26196 10.8507,24.11266 24.11266,24.11266l-36.16898,0c-6.63098,0 -12.05633,5.42535 -12.05633,12.05633s5.42535,12.05633 12.05633,12.05633l265.23921,0c6.63098,0 12.05633,-5.42535 12.05633,-12.05633s-5.42535,-12.05633 -12.05633,-12.05633l-36.16898,0zm-180.84492,-144.67593l168.78859,0c6.63098,0 12.05633,5.42535 12.05633,12.05633l0,96.45062c0,6.63098 -5.42535,12.05633 -12.05633,12.05633l-168.78859,0c-6.63098,0 -12.05633,-5.42535 -12.05633,-12.05633l0,-96.45062c0,-6.63098 5.42535,-12.05633 12.05633,-12.05633z"/>
  </g>
 </g>
</svg>